<svg width="256" height="256" viewBox="0 0 256 256" fill="none" xmlns="http://www.w3.org/2000/svg">
<path d="M127.181 12.8774C164.019 68.711 162.611 117.556 127.258 146.407C126.336 147.149 125.21 147.175 124.288 146.407C92.5954 120.193 86.5794 70.0934 124.339 12.8774C124.8 12.1606 126.72 12.1606 127.181 12.8774Z" fill="#DC4102"/>
<path d="M98.5089 96.154C98.1761 92.3652 98.1249 88.474 98.2785 84.4804C98.7393 71.6548 102.042 58.138 106.778 46.234C112.768 31.1812 120.576 18.6372 124.467 12.6724C125.261 11.4436 126.234 11.418 127.053 12.6724C130.023 17.2036 139.418 32.0772 145.485 47.258C149.786 58.01 153.114 70.1956 154.061 82.0996C154.445 86.8612 154.445 91.5204 154.035 96.1284C150.016 95.1044 128.103 80.6916 125.747 58.9572C122.931 80.794 102.298 96.2564 98.5089 96.154Z" fill="#FC6502"/>
<path d="M225.588 137.447L125.748 223.745L25.9331 137.447C25.9331 137.447 25.9331 154.19 25.9331 159.898C25.9331 160.41 26.0611 161.409 26.9059 162.151C35.6611 169.678 101.376 226.254 124.288 245.991C124.8 246.426 125.287 246.657 125.748 246.657C126.234 246.631 126.72 246.426 127.207 245.991C150.119 226.228 215.834 169.678 224.589 162.151C225.434 161.434 225.562 160.41 225.562 159.898C225.562 154.19 225.588 137.447 225.588 137.447Z" fill="#DC4102"/>
<path d="M225.588 123.674C225.588 122.906 224.845 122.087 223.898 122.906C201.293 142.541 136.986 198.4 127.002 206.669C126.516 207.079 126.132 207.284 125.748 207.284C125.364 207.284 124.98 207.079 124.493 206.669C114.509 198.426 50.2019 142.541 27.6227 122.906C26.6755 122.087 25.9331 122.906 25.9331 123.674C25.9331 129.076 25.9331 145.306 25.9331 145.306L125.748 231.245L225.562 145.306C225.588 145.306 225.588 129.076 225.588 123.674Z" fill="#FC6502"/>
<path d="M27.6739 52.5575C35.0467 57.2679 63.8723 76.5959 77.0307 99.5591C87.1171 117.172 89.3955 135.834 89.3955 135.834L25.9331 96.1543C25.9331 96.1543 25.9331 64.0519 25.9331 53.3767C25.9331 52.8903 26.5731 51.8407 27.6739 52.5575Z" fill="#FC6502"/>
<path d="M107.06 169.908C83.6867 149.249 74.8547 140.059 56.2947 128.769C47.6419 123.495 31.0531 113.204 26.9059 110.619C26.2915 110.235 25.9331 109.569 25.9331 108.366C25.9331 105.294 25.9331 96.1289 25.9331 96.1289C25.9331 96.1289 66.4835 113.947 89.3955 135.809C115.661 160.846 118.682 171.342 115.252 173.364C112.384 175.054 110.029 172.545 107.06 169.908Z" fill="#DC4102"/>
<path d="M223.821 52.8129C216.448 57.5233 187.622 76.8513 174.464 99.8145C164.378 117.427 162.099 136.09 162.099 136.09L225.562 96.4097C225.562 96.4097 225.562 64.3073 225.562 53.6321C225.587 53.1201 224.947 52.0961 223.821 52.8129Z" fill="#FC6502"/>
<path d="M144.461 170.138C167.834 149.504 176.666 140.288 195.226 128.998C203.878 123.725 220.467 113.434 224.614 110.848C225.229 110.464 225.587 109.798 225.587 108.595C225.587 105.523 225.587 96.3584 225.587 96.3584C225.587 96.3584 185.037 114.176 162.125 136.038C135.859 161.075 132.838 171.571 136.269 173.594C139.11 175.309 141.491 172.774 144.461 170.138Z" fill="#DC4102"/>
</svg>
